<?xml version="1.0" encoding="UTF-8"?>
<svg xmlns="http://www.w3.org/2000/svg"
     xmlns:xlink="http://www.w3.org/1999/xlink"
     xmlns:gadfly="http://www.gadflyjl.org/ns"
     version="1.2"
     width="406.4mm" height="228.6mm" viewBox="0 0 406.4 228.6"
     stroke="none"
     fill="#000000"
     stroke-width="0.3"
     font-size="3.88"
>
<g class="plotroot xscalable yscalable" id="img-d31ea97e-1">
  <g font-size="3.88" font-family="'PT Sans','Helvetica Neue','Helvetica',sans-serif" fill="#564A55" stroke="#000000" stroke-opacity="0.000" id="img-d31ea97e-2">
    <text x="209.95" y="216.99" text-anchor="middle" dy="0.6em">x</text>
  </g>
  <g class="guide xlabels" font-size="2.82" font-family="'PT Sans Caption','Helvetica Neue','Helvetica',sans-serif" fill="#6C606B" id="img-d31ea97e-3">
    <text x="20.5" y="210.32" text-anchor="middle" dy="0.6em">0</text>
    <text x="209.95" y="210.32" text-anchor="middle" dy="0.6em">500</text>
    <text x="399.4" y="210.32" text-anchor="middle" dy="0.6em">1000</text>
  </g>
<g clip-path="url(#img-d31ea97e-4)">
  <g id="img-d31ea97e-5">
    <g pointer-events="visible" opacity="1" fill="#000000" fill-opacity="0.000" stroke="#000000" stroke-opacity="0.000" class="guide background" id="img-d31ea97e-6">
      <rect x="18.5" y="5" width="382.9" height="204.32"/>
    </g>
    <g class="guide ygridlines xfixed" stroke-dasharray="0.5,0.5" stroke-width="0.2" stroke="#D0D0E0" id="img-d31ea97e-7">
      <path fill="none" d="M18.5,207.31 L 401.4 207.31"/>
      <path fill="none" d="M18.5,167.25 L 401.4 167.25"/>
      <path fill="none" d="M18.5,127.19 L 401.4 127.19"/>
      <path fill="none" d="M18.5,87.13 L 401.4 87.13"/>
      <path fill="none" d="M18.5,47.06 L 401.4 47.06"/>
      <path fill="none" d="M18.5,7 L 401.4 7"/>
    </g>
    <g class="guide xgridlines yfixed" stroke-dasharray="0.5,0.5" stroke-width="0.2" stroke="#D0D0E0" id="img-d31ea97e-8">
      <path fill="none" d="M20.5,5 L 20.5 209.32"/>
      <path fill="none" d="M209.95,5 L 209.95 209.32"/>
      <path fill="none" d="M399.4,5 L 399.4 209.32"/>
    </g>
    <g class="plotpanel" id="img-d31ea97e-9">
      <g stroke-width="0.3" fill="#000000" fill-opacity="0.000" class="geometry" stroke-dasharray="none" stroke="#00BFFF" id="img-d31ea97e-10">
        <path fill="none" d="M20.88,42.71 L 21.26 42.58 21.64 42.44 22.01 42.46 22.39 42.71 22.77 43.05 23.15 43.19 23.53 42.95 23.91 42.3 24.29 41.52 24.67 40.98 25.05 40.96 25.42 41.5 25.8 42.25 26.18 42.77 26.56 42.87 26.94 42.66 27.32 42.22 27.7 41.61 28.08 40.83 28.46 39.99 28.83 39.28 29.21 38.94 29.59 39.14 29.97 39.93 30.35 40.98 30.73 41.73 31.11 41.76 31.49 40.93 31.87 39.6 32.25 38.49 32.62 38.03 33 38.15 33.38 38.56 33.76 38.81 34.14 38.72 34.52 38.41 34.9 38.2 35.28 38.35 35.66 38.73 36.03 38.85 36.41 38.27 36.79 37.17 37.17 36.37 37.55 36.43 37.93 37.29 38.31 38.11 38.69 38.14 39.07 37.38 39.44 36.51 39.82 36.11 40.2 36.29 40.58 36.79 40.96 37.27 41.34 37.43 41.72 37.1 42.1 36.56 42.48 36.56 42.85 37.55 43.23 38.77 43.61 39 43.99 37.88 44.37 36.5 44.75 36.43 45.13 38.03 45.51 40.14 45.89 41.51 46.26 41.8 46.64 41.25 47.02 40.26 47.4 39.66 47.78 40.36 48.16 42.83 48.54 46.16 48.92 48.67 49.3 49.33 49.67 48.47 50.05 47.34 50.43 47.01 50.81 47.24 51.19 47.44 51.57 47.6 51.95 48.29 52.33 49.51 52.71 50.4 53.08 50.37 53.46 49.62 53.84 48.85 54.22 48.6 54.6 48.96 54.98 49.46 55.36 49.64 55.74 49.69 56.12 50.07 56.49 50.57 56.87 50.39 57.25 49.26 57.63 48.13 58.01 48.01 58.39 48.72 58.77 49.15 59.15 48.81 59.53 48.39 59.9 48.81 60.28 49.95 60.66 50.71 61.04 50.28 61.42 48.95 61.8 47.98 62.18 48.05 62.56 48.59 62.94 48.56 63.31 48.02 63.69 48.35 64.07 50.25 64.45 51.9 64.83 50.96 65.21 47.61 65.59 45.41 65.97 46.53 66.35 49.34 66.73 50.59 67.1 50.4 67.48 51.67 67.86 55.74 68.24 59.6 68.62 60.21 69 58.47 69.38 57.98 69.76 60.67 70.14 64.19 70.51 65.13 70.89 63.61 71.27 62.74 71.65 64.69 72.03 67.91 72.41 69.03 72.79 67.43 73.17 65.67 73.55 66.29 73.92 68.66 74.3 69.89 74.68 68.56 75.06 66.48 75.44 66.58 75.82 69.2 76.2 71.58 76.58 71.26 76.96 69.03 77.33 68.21 77.71 70.42 78.09 73.53 78.47 73.95 78.85 70.99 79.23 68.25 79.61 69.59 79.99 74.76 80.37 78.78 80.74 77.76 81.12 72.97 81.5 70.42 81.88 74.17 82.26 82.09 82.64 86.46 83.02 83.14 83.4 74.96 83.78 71.09 84.15 76.29 84.53 85.97 84.91 89.14 85.29 81.45 85.67 70.29 86.05 69.26 86.43 82.37 86.81 97.95 87.19 100.21 87.56 87.88 87.94 75.25 88.32 79.28 88.7 105.17 89.08 140.1 89.46 167.48 89.84 183.03 90.22 190.4 90.6 193.72 90.97 195.27 91.35 196.07 91.73 196.56 92.11 196.94 92.49 197.25 92.87 197.53 93.25 197.78 93.63 198.03 94.01 198.26 94.38 198.49 94.76 198.72 95.14 198.94 95.52 199.16 95.9 199.37 96.28 199.59 96.66 199.79 97.04 199.99 97.42 200.17 97.79 200.34 98.17 200.5 98.55 200.65 98.93 200.8 99.31 200.95 99.69 201.1 100.07 201.25 100.45 201.41 100.83 201.55 101.21 201.69 101.58 201.81 101.96 201.91 102.34 202.01 102.72 202.1 103.1 202.19 103.48 202.27 103.86 202.34 104.24 202.4 104.62 202.46 104.99 202.51 105.37 202.55 105.75 202.58 106.13 202.61 106.51 202.63 106.89 202.65 107.27 202.67 107.65 202.68 108.03 202.69 108.4 202.7 108.78 202.7 109.16 202.7 109.54 202.71 109.92 202.72 110.3 202.72 110.68 202.73 111.06 202.73 111.44 202.74 111.81 202.74 112.19 202.74 112.57 202.75 112.95 202.75 113.33 202.75 113.71 202.75 114.09 202.75 114.47 202.75 114.85 202.75 115.22 202.75 115.6 202.75 115.98 202.75 116.36 202.75 116.74 202.75 117.12 202.75 117.5 202.75 117.88 202.75 118.26 202.75 118.63 202.74 119.01 202.74 119.39 202.74 119.77 202.73 120.15 202.73 120.53 202.72 120.91 202.72 121.29 202.71 121.67 202.7 122.04 202.7 122.42 202.7 122.8 202.69 123.18 202.68 123.56 202.67 123.94 202.65 124.32 202.63 124.7 202.61 125.08 202.58 125.45 202.55 125.83 202.51 126.21 202.46 126.59 202.4 126.97 202.34 127.35 202.27 127.73 202.19 128.11 202.1 128.49 202.01 128.86 201.91 129.24 201.81 129.62 201.69 130 201.55 130.38 201.41 130.76 201.25 131.14 201.1 131.52 200.95 131.9 200.8 132.27 200.65 132.65 200.5 133.03 200.34 133.41 200.17 133.79 199.99 134.17 199.79 134.55 199.59 134.93 199.37 135.31 199.16 135.69 198.94 136.06 198.72 136.44 198.49 136.82 198.26 137.2 198.03 137.58 197.78 137.96 197.53 138.34 197.25 138.72 196.94 139.1 196.56 139.47 196.07 139.85 195.27 140.23 193.72 140.61 190.4 140.99 183.03 141.37 167.48 141.75 140.1 142.13 105.17 142.51 79.28 142.88 75.25 143.26 87.88 143.64 100.21 144.02 97.95 144.4 82.37 144.78 69.26 145.16 70.29 145.54 81.45 145.92 89.14 146.29 85.97 146.67 76.29 147.05 71.09 147.43 74.96 147.81 83.14 148.19 86.46 148.57 82.09 148.95 74.17 149.33 70.42 149.7 72.97 150.08 77.76 150.46 78.78 150.84 74.76 151.22 69.59 151.6 68.25 151.98 70.99 152.36 73.95 152.74 73.53 153.11 70.42 153.49 68.21 153.87 69.03 154.25 71.26 154.63 71.58 155.01 69.2 155.39 66.58 155.77 66.48 156.15 68.56 156.52 69.89 156.9 68.66 157.28 66.29 157.66 65.67 158.04 67.43 158.42 69.03 158.8 67.91 159.18 64.69 159.56 62.74 159.93 63.61 160.31 65.13 160.69 64.19 161.07 60.67 161.45 57.98 161.83 58.47 162.21 60.21 162.59 59.6 162.97 55.74 163.34 51.67 163.72 50.4 164.1 50.59 164.48 49.34 164.86 46.53 165.24 45.41 165.62 47.61 166 50.96 166.38 51.9 166.75 50.25 167.13 48.35 167.51 48.02 167.89 48.56 168.27 48.59 168.65 48.05 169.03 47.98 169.41 48.95 169.79 50.28 170.16 50.71 170.54 49.95 170.92 48.81 171.3 48.39 171.68 48.81 172.06 49.15 172.44 48.72 172.82 48.01 173.2 48.13 173.58 49.26 173.95 50.39 174.33 50.57 174.71 50.07 175.09 49.69 175.47 49.64 175.85 49.46 176.23 48.96 176.61 48.6 176.99 48.85 177.36 49.62 177.74 50.37 178.12 50.4 178.5 49.51 178.88 48.29 179.26 47.6 179.64 47.44 180.02 47.24 180.4 47.01 180.77 47.34 181.15 48.47 181.53 49.33 181.91 48.67 182.29 46.16 182.67 42.83 183.05 40.36 183.43 39.66 183.81 40.26 184.18 41.25 184.56 41.8 184.94 41.51 185.32 40.14 185.7 38.03 186.08 36.43 186.46 36.5 186.84 37.88 187.22 39 187.59 38.77 187.97 37.55 188.35 36.56 188.73 36.56 189.11 37.1 189.49 37.43 189.87 37.27 190.25 36.79 190.63 36.29 191 36.11 191.38 36.51 191.76 37.38 192.14 38.14 192.52 38.11 192.9 37.29 193.28 36.43 193.66 36.37 194.04 37.17 194.41 38.27 194.79 38.85 195.17 38.73 195.55 38.35 195.93 38.2 196.31 38.41 196.69 38.72 197.07 38.81 197.45 38.56 197.82 38.15 198.2 38.03 198.58 38.49 198.96 39.6 199.34 40.93 199.72 41.76 200.1 41.73 200.48 40.98 200.86 39.93 201.23 39.14 201.61 38.94 201.99 39.28 202.37 39.99 202.75 40.83 203.13 41.61 203.51 42.22 203.89 42.66 204.27 42.87 204.64 42.77 205.02 42.25 205.4 41.5 205.78 40.96 206.16 40.98 206.54 41.52 206.92 42.3 207.3 42.95 207.68 43.19 208.06 43.05 208.43 42.71 208.81 42.46 209.19 42.44 209.57 42.58 209.95 42.71 210.33 42.82 210.71 43.05 211.09 43.51 211.47 44.06 211.84 44.3 212.22 44 212.6 43.22 212.98 42.41 213.36 42.17 213.74 42.65 214.12 43.75 214.5 45.05 214.88 45.95 215.25 46.07 215.63 45.51 216.01 44.56 216.39 43.69 216.77 43.28 217.15 43.31 217.53 43.58 217.91 43.94 218.29 44.42 218.66 45.03 219.04 45.65 219.42 45.97 219.8 45.86 220.18 45.38 220.56 44.78 220.94 44.38 221.32 44.33 221.7 44.6 222.07 45.04 222.45 45.46 222.83 45.61 223.21 45.4 223.59 44.9 223.97 44.29 224.35 43.89 224.73 43.82 225.11 43.99 225.48 44.25 225.86 44.52 226.24 44.85 226.62 45.16 227 45.28 227.38 45.09 227.76 44.6 228.14 43.91 228.52 43.24 228.89 42.86 229.27 42.87 229.65 43.23 230.03 43.72 230.41 44.02 230.79 43.99 231.17 43.69 231.55 43.22 231.93 42.75 232.3 42.42 232.68 42.26 233.06 42.24 233.44 42.24 233.82 42.2 234.2 42.11 234.58 42.01 234.96 41.91 235.34 41.85 235.71 41.82 236.09 41.76 236.47 41.63 236.85 41.45 237.23 41.29 237.61 41.18 237.99 41.08 238.37 41 238.75 40.92 239.12 40.81 239.5 40.68 239.88 40.54 240.26 40.43 240.64 40.39 241.02 40.42 241.4 40.51 241.78 40.54 242.16 40.45 242.54 40.25 242.91 40.03 243.29 39.88 243.67 39.84 244.05 39.84 244.43 39.83 244.81 39.78 245.19 39.72 245.57 39.68 245.95 39.62 246.32 39.51 246.7 39.37 247.08 39.22 247.46 39.15 247.84 39.15 248.22 39.18 248.6 39.16 248.98 39.07 249.36 38.95 249.73 38.83 250.11 38.77 250.49 38.77 250.87 38.76 251.25 38.71 251.63 38.6 252.01 38.42 252.39 38.17 252.77 37.88 253.14 37.68 253.52 37.66 253.9 37.84 254.28 38.1 254.66 38.27 255.04 38.27 255.42 38.12 255.8 37.86 256.18 37.53 256.55 37.17 256.93 36.88 257.31 36.81 257.69 37.01 258.07 37.34 258.45 37.5 258.83 37.35 259.21 37.01 259.59 36.76 259.96 36.7 260.34 36.78 260.72 36.8 261.1 36.68 261.48 36.45 261.86 36.22 262.24 36.04 262.62 35.94 263 35.85 263.37 35.76 263.75 35.69 264.13 35.69 264.51 35.71 264.89 35.68 265.27 35.52 265.65 35.27 266.03 35.03 266.41 34.93 266.78 34.99 267.16 35.12 267.54 35.19 267.92 35.15 268.3 35.02 268.68 34.89 269.06 34.75 269.44 34.61 269.82 34.47 270.19 34.36 270.57 34.31 270.95 34.33 271.33 34.38 271.71 34.42 272.09 34.42 272.47 34.39 272.85 34.34 273.23 34.27 273.6 34.15 273.98 34.01 274.36 33.86 274.74 33.74 275.12 33.69 275.5 33.67 275.88 33.68 276.26 33.68 276.64 33.65 277.02 33.61 277.39 33.54 277.77 33.48 278.15 33.43 278.53 33.4 278.91 33.37 279.29 33.32 279.67 33.26 280.05 33.19 280.43 33.12 280.8 33.09 281.18 33.1 281.56 33.13 281.94 33.19 282.32 33.21 282.7 33.21 283.08 33.17 283.46 33.09 283.84 33 284.21 32.94 284.59 32.9 284.97 32.89 285.35 32.89 285.73 32.89 286.11 32.87 286.49 32.85 286.87 32.83 287.25 32.82 287.62 32.82 288 32.82 288.38 32.81 288.76 32.79 289.14 32.76 289.52 32.72 289.9 32.72 290.28 32.71 290.66 32.7 291.03 32.69 291.41 32.67 291.79 32.63 292.17 32.62 292.55 32.58 292.93 32.53 293.31 32.47 293.69 32.4 294.07 32.37 294.44 32.38 294.82 32.45 295.2 32.53 295.58 32.6 295.96 32.6 296.34 32.55 296.72 32.46 297.1 32.41 297.48 32.38 297.85 32.4 298.23 32.42 298.61 32.4 298.99 32.36 299.37 32.33 299.75 32.35 300.13 32.41 300.51 32.46 300.89 32.45 301.26 32.38 301.64 32.32 302.02 32.29 302.4 32.36 302.78 32.47 303.16 32.56 303.54 32.57 303.92 32.5 304.3 32.38 304.67 32.31 305.05 32.31 305.43 32.38 305.81 32.5 306.19 32.57 306.57 32.56 306.95 32.47 307.33 32.36 307.71 32.29 308.08 32.32 308.46 32.38 308.84 32.45 309.22 32.46 309.6 32.41 309.98 32.35 310.36 32.33 310.74 32.36 311.12 32.4 311.5 32.42 311.87 32.4 312.25 32.38 312.63 32.41 313.01 32.46 313.39 32.55 313.77 32.6 314.15 32.6 314.53 32.53 314.91 32.45 315.28 32.38 315.66 32.37 316.04 32.4 316.42 32.47 316.8 32.53 317.18 32.58 317.56 32.62 317.94 32.63 318.32 32.67 318.69 32.69 319.07 32.7 319.45 32.71 319.83 32.72 320.21 32.72 320.59 32.76 320.97 32.79 321.35 32.81 321.73 32.82 322.1 32.82 322.48 32.82 322.86 32.83 323.24 32.85 323.62 32.87 324 32.89 324.38 32.89 324.76 32.89 325.14 32.9 325.51 32.94 325.89 33 326.27 33.09 326.65 33.17 327.03 33.21 327.41 33.21 327.79 33.19 328.17 33.13 328.55 33.1 328.92 33.09 329.3 33.12 329.68 33.19 330.06 33.26 330.44 33.32 330.82 33.37 331.2 33.4 331.58 33.43 331.96 33.48 332.33 33.54 332.71 33.61 333.09 33.65 333.47 33.68 333.85 33.68 334.23 33.67 334.61 33.69 334.99 33.74 335.37 33.86 335.74 34.01 336.12 34.15 336.5 34.27 336.88 34.34 337.26 34.39 337.64 34.42 338.02 34.42 338.4 34.38 338.78 34.33 339.15 34.31 339.53 34.36 339.91 34.47 340.29 34.61 340.67 34.75 341.05 34.89 341.43 35.02 341.81 35.15 342.19 35.19 342.56 35.12 342.94 34.99 343.32 34.93 343.7 35.03 344.08 35.27 344.46 35.52 344.84 35.68 345.22 35.71 345.6 35.69 345.97 35.69 346.35 35.76 346.73 35.85 347.11 35.94 347.49 36.04 347.87 36.22 348.25 36.45 348.63 36.68 349.01 36.8 349.39 36.78 349.76 36.7 350.14 36.76 350.52 37.01 350.9 37.35 351.28 37.5 351.66 37.34 352.04 37.01 352.42 36.81 352.8 36.88 353.17 37.17 353.55 37.53 353.93 37.86 354.31 38.12 354.69 38.27 355.07 38.27 355.45 38.1 355.83 37.84 356.21 37.66 356.58 37.68 356.96 37.88 357.34 38.17 357.72 38.42 358.1 38.6 358.48 38.71 358.86 38.76 359.24 38.77 359.62 38.77 359.99 38.83 360.37 38.95 360.75 39.07 361.13 39.16 361.51 39.18 361.89 39.15 362.27 39.15 362.65 39.22 363.03 39.37 363.4 39.51 363.78 39.62 364.16 39.68 364.54 39.72 364.92 39.78 365.3 39.83 365.68 39.84 366.06 39.84 366.44 39.88 366.81 40.03 367.19 40.25 367.57 40.45 367.95 40.54 368.33 40.51 368.71 40.42 369.09 40.39 369.47 40.43 369.85 40.54 370.22 40.68 370.6 40.81 370.98 40.92 371.36 41 371.74 41.08 372.12 41.18 372.5 41.29 372.88 41.45 373.26 41.63 373.63 41.76 374.01 41.82 374.39 41.85 374.77 41.91 375.15 42.01 375.53 42.11 375.91 42.2 376.29 42.24 376.67 42.24 377.04 42.26 377.42 42.42 377.8 42.75 378.18 43.22 378.56 43.69 378.94 43.99 379.32 44.02 379.7 43.72 380.08 43.23 380.45 42.87 380.83 42.86 381.21 43.24 381.59 43.91 381.97 44.6 382.35 45.09 382.73 45.28 383.11 45.16 383.49 44.85 383.87 44.52 384.24 44.25 384.62 43.99 385 43.82 385.38 43.89 385.76 44.29 386.14 44.9 386.52 45.4 386.9 45.61 387.28 45.46 387.65 45.04 388.03 44.6 388.41 44.33 388.79 44.38 389.17 44.78 389.55 45.38 389.93 45.86 390.31 45.97 390.69 45.65 391.06 45.03 391.44 44.42 391.82 43.94 392.2 43.58 392.58 43.31 392.96 43.28 393.34 43.69 393.72 44.56 394.1 45.51 394.47 46.07 394.85 45.95 395.23 45.05 395.61 43.75 395.99 42.65 396.37 42.17 396.75 42.41 397.13 43.22 397.51 44 397.88 44.3 398.26 44.06 398.64 43.51 399.02 43.05 399.4 42.82"/>
      </g>
    </g>
  </g>
</g>
  <g class="guide ylabels" font-size="2.82" font-family="'PT Sans Caption','Helvetica Neue','Helvetica',sans-serif" fill="#6C606B" id="img-d31ea97e-11">
    <text x="17.5" y="207.31" text-anchor="end" dy="0.35em">1.15</text>
    <text x="17.5" y="167.25" text-anchor="end" dy="0.35em">1.20</text>
    <text x="17.5" y="127.19" text-anchor="end" dy="0.35em">1.25</text>
    <text x="17.5" y="87.13" text-anchor="end" dy="0.35em">1.30</text>
    <text x="17.5" y="47.06" text-anchor="end" dy="0.35em">1.35</text>
    <text x="17.5" y="7" text-anchor="end" dy="0.35em">1.40</text>
  </g>
  <g font-size="3.88" font-family="'PT Sans','Helvetica Neue','Helvetica',sans-serif" fill="#564A55" stroke="#000000" stroke-opacity="0.000" id="img-d31ea97e-12">
    <text x="8.81" y="107.16" text-anchor="end" dy="0.35em">y</text>
  </g>
</g>
<defs>
  <clipPath id="img-d31ea97e-4">
  <path d="M18.5,5 L 401.4 5 401.4 209.32 18.5 209.32" />
</clipPath>
</defs>
</svg>
